<svg xmlns="http://www.w3.org/2000/svg" viewBox="0 0 56 54"><defs><style>.cls-1{fill:#001e36;}.cls-2{fill:#31a8ff;}</style></defs><title>Asset 181</title><g id="Layer_2" data-name="Layer 2"><g id="Surfaces"><g id="Photo_Surface" data-name="Photo Surface"><g id="Outline_no_shadow" data-name="Outline no shadow"><rect class="cls-1" width="56" height="54" rx="9.91383"/></g></g></g><g id="Outlined_Mnemonics_Logos" data-name="Outlined Mnemonics &amp; Logos"><g id="LrC"><path class="cls-2" d="M19.48265,37.999H6.36234q-.33289,0-.33267-.407L6.04527,14.374c0-.22192.09932-.333.29971-.333H10.6877c.15513,0,.23291.08691.23291.259l.054,18.78h9.16515q.29993,0,.23291.333l-.55736,4.253q-.033.22192-.13271.27759A.41144.41144,0,0,1,19.48265,37.999Z"/><path class="cls-2" d="M23.138,19.61328h3.977q.29926,0,.43286.36987a1.93482,1.93482,0,0,1,.16655.51807,6.68872,6.68872,0,0,1,.09976.72144q.033.38854.0334.83252a7.998,7.998,0,0,1,2.2144-1.9795,3.92551,3.92551,0,0,1,2.50076-.83252q.29927,0,.29971.333v4.477c0,.17285-.11162.259-.33311.259a3.986,3.986,0,0,0-1.60164.1665,7.62688,7.62688,0,0,0-1.73144.61035,4.86113,4.86113,0,0,0-1.34921.85108V37.6601q0,.3329-.26675.333H23.4377q-.33288,0-.33311-.37012V24.9043q0-.81372-.01669-1.72071-.01715-.906-.04966-1.79443a12.95673,12.95673,0,0,0-.13316-1.51685.3102.3102,0,0,1,.0501-.20361A.23954.23954,0,0,1,23.138,19.61328Z"/><path class="cls-2" d="M49.68655,16.13843a5.2529,5.2529,0,0,0-1.45578-.41015,17.332,17.332,0,0,0-2.34375-.13473,11.49048,11.49048,0,0,0-5.86138,1.43623,9.78468,9.78468,0,0,0-3.80516,4.02474,12.86321,12.86321,0,0,0-1.16028,5.98067,14.94216,14.94216,0,0,0,.34,4.0378,10.6072,10.6072,0,0,0,1.46024,3.14218,9.33081,9.33081,0,0,0,2.25486,2.285,9.49814,9.49814,0,0,0,2.90907,1.38788,12.212,12.212,0,0,0,3.35319.45542,17.56244,17.56244,0,0,0,2.37321-.15137,7.55642,7.55642,0,0,0,1.85162-.45982.58827.58827,0,0,0,.33624-.61106V33.69263a.41448.41448,0,0,0-.11667-.3372c-.05751-.04765-.17942-.10456-.35859.03279a6.60584,6.60584,0,0,1-1.60139.38152,18.12,18.12,0,0,1-2.00488.09885,7.07062,7.07062,0,0,1-1.80218-.24428,6.80776,6.80776,0,0,1-1.74254-.73214A5.13874,5.13874,0,0,1,40.859,31.567a6.564,6.564,0,0,1-1.009-1.9835,8.818,8.818,0,0,1-.36714-2.68165,8.273,8.273,0,0,1,.76255-3.67542A5.84093,5.84093,0,0,1,42.405,20.81012a6.246,6.246,0,0,1,3.36223-.87472,12.27946,12.27946,0,0,1,2.1591.1806,4.883,4.883,0,0,1,1.57151.56972.28974.28974,0,0,0,.29418.00214.3962.3962,0,0,0,.14-.3435V16.68249A.58944.58944,0,0,0,49.68655,16.13843Z"/></g></g></g></svg>