<svg xmlns="http://www.w3.org/2000/svg" xmlns:xlink="http://www.w3.org/1999/xlink" width="100" zoomAndPan="magnify" viewBox="0 0 75 74.999997" height="100" preserveAspectRatio="xMidYMid meet" version="1.0"><defs><clipPath id="98764621af"><path d="M 0 1.339844 L 75 1.339844 L 75 73.339844 L 0 73.339844 Z M 0 1.339844 " clip-rule="nonzero"/></clipPath></defs><rect x="-7.5" width="90" fill="#ffffff" y="-7.5" height="89.999996" fill-opacity="1"/><rect x="-7.5" width="90" fill="#ffffff" y="-7.5" height="89.999996" fill-opacity="1"/><rect x="-7.5" width="90" fill="#f91101" y="-7.5" height="89.999996" fill-opacity="1"/><g clip-path="url(#98764621af)"><path fill="#fa0f00" d="M 13.261719 1.339844 L 61.738281 1.339844 C 69.105469 1.339844 74.996094 7.207031 74.996094 14.539062 L 74.996094 60.140625 C 74.996094 67.472656 69.105469 73.339844 61.738281 73.339844 L 13.261719 73.339844 C 5.894531 73.339844 0.00390625 67.472656 0.00390625 60.140625 L 0.00390625 14.539062 C 0.00390625 7.207031 5.894531 1.339844 13.261719 1.339844 Z M 13.261719 1.339844 " fill-opacity="1" fill-rule="nonzero"/></g><path fill="#ffffff" d="M 60.265625 42.9375 C 56.785156 39.339844 47.277344 40.804688 45 41.074219 C 41.652344 37.871094 39.375 34.007812 38.570312 32.671875 C 39.777344 29.074219 40.582031 25.472656 40.714844 21.605469 C 40.714844 18.273438 39.375 14.671875 35.625 14.671875 C 34.285156 14.671875 33.082031 15.472656 32.410156 16.539062 C 30.804688 19.339844 31.472656 24.9375 34.019531 30.671875 C 32.546875 34.804688 31.207031 38.804688 27.457031 45.871094 C 23.574219 47.472656 15.402344 51.207031 14.734375 55.207031 C 14.464844 56.40625 14.867188 57.605469 15.804688 58.539062 C 16.742188 59.339844 17.949219 59.738281 19.152344 59.738281 C 24.109375 59.738281 28.929688 52.9375 32.277344 47.207031 C 35.089844 46.273438 39.507812 44.9375 43.929688 44.140625 C 49.152344 48.671875 53.703125 49.339844 56.113281 49.339844 C 59.328125 49.339844 60.535156 48.007812 60.9375 46.804688 C 61.605469 45.472656 61.203125 44.007812 60.265625 42.9375 Z M 56.917969 45.207031 C 56.785156 46.140625 55.578125 47.074219 53.4375 46.539062 C 50.890625 45.871094 48.617188 44.671875 46.605469 43.074219 C 48.347656 42.804688 52.230469 42.40625 55.042969 42.9375 C 56.113281 43.207031 57.1875 43.871094 56.917969 45.207031 Z M 34.554688 17.738281 C 34.820312 17.339844 35.222656 17.074219 35.625 17.074219 C 36.832031 17.074219 37.097656 18.539062 37.097656 19.738281 C 36.964844 22.539062 36.429688 25.339844 35.492188 28.007812 C 33.484375 22.671875 33.882812 18.9375 34.554688 17.738281 Z M 34.285156 43.605469 C 35.355469 41.472656 36.832031 37.738281 37.367188 36.140625 C 38.570312 38.140625 40.582031 40.539062 41.652344 41.605469 C 41.652344 41.738281 37.5 42.539062 34.285156 43.605469 Z M 26.382812 48.9375 C 23.304688 54.007812 20.089844 57.207031 18.347656 57.207031 C 18.082031 57.207031 17.8125 57.074219 17.546875 56.9375 C 17.144531 56.671875 17.011719 56.273438 17.144531 55.738281 C 17.546875 53.871094 21.027344 51.339844 26.382812 48.9375 Z M 26.382812 48.9375 " fill-opacity="1" fill-rule="nonzero"/></svg>