<svg xmlns="http://www.w3.org/2000/svg" xmlns:xlink="http://www.w3.org/1999/xlink" width="100" zoomAndPan="magnify" viewBox="0 0 75 74.999997" height="100" preserveAspectRatio="xMidYMid meet" version="1.0"><rect x="-7.5" width="90" fill="#ffffff" y="-7.5" height="89.999996" fill-opacity="1"/><rect x="-7.5" width="90" fill="#ffffff" y="-7.5" height="89.999996" fill-opacity="1"/><rect x="-7.5" width="90" fill="#f91101" y="-7.5" height="89.999996" fill-opacity="1"/><path fill="#fa0f00" d="M 13.28125 0.9375 L 61.71875 0.9375 C 62.589844 0.9375 63.453125 1.023438 64.308594 1.191406 C 65.164062 1.363281 65.996094 1.613281 66.800781 1.949219 C 67.605469 2.28125 68.371094 2.691406 69.097656 3.175781 C 69.824219 3.660156 70.492188 4.210938 71.109375 4.828125 C 71.726562 5.445312 72.277344 6.113281 72.761719 6.839844 C 73.246094 7.566406 73.65625 8.332031 73.988281 9.136719 C 74.324219 9.941406 74.574219 10.773438 74.746094 11.628906 C 74.914062 12.484375 75 13.347656 75 14.21875 L 75 60.78125 C 75 61.652344 74.914062 62.515625 74.746094 63.371094 C 74.574219 64.226562 74.324219 65.058594 73.988281 65.863281 C 73.65625 66.667969 73.246094 67.433594 72.761719 68.160156 C 72.277344 68.886719 71.726562 69.554688 71.109375 70.171875 C 70.492188 70.789062 69.824219 71.339844 69.097656 71.824219 C 68.371094 72.308594 67.605469 72.71875 66.800781 73.050781 C 65.996094 73.386719 65.164062 73.636719 64.308594 73.808594 C 63.453125 73.976562 62.589844 74.0625 61.71875 74.0625 L 13.28125 74.0625 C 12.410156 74.0625 11.546875 73.976562 10.691406 73.808594 C 9.835938 73.636719 9.003906 73.386719 8.199219 73.050781 C 7.394531 72.71875 6.628906 72.308594 5.902344 71.824219 C 5.175781 71.339844 4.507812 70.789062 3.890625 70.171875 C 3.273438 69.554688 2.722656 68.886719 2.238281 68.160156 C 1.753906 67.433594 1.34375 66.667969 1.011719 65.863281 C 0.675781 65.058594 0.425781 64.226562 0.253906 63.371094 C 0.0859375 62.515625 0 61.652344 0 60.78125 L 0 14.21875 C 0 13.347656 0.0859375 12.484375 0.253906 11.628906 C 0.425781 10.773438 0.675781 9.941406 1.011719 9.136719 C 1.34375 8.332031 1.753906 7.566406 2.238281 6.839844 C 2.722656 6.113281 3.273438 5.445312 3.890625 4.828125 C 4.507812 4.210938 5.175781 3.660156 5.902344 3.175781 C 6.628906 2.691406 7.394531 2.28125 8.199219 1.949219 C 9.003906 1.613281 9.835938 1.363281 10.691406 1.191406 C 11.546875 1.023438 12.410156 0.9375 13.28125 0.9375 Z M 13.28125 0.9375 " fill-opacity="1" fill-rule="nonzero"/><path fill="#ffffff" d="M 58.316406 55.921875 L 49.410156 55.921875 C 49.015625 55.929688 48.648438 55.824219 48.316406 55.609375 C 47.984375 55.398438 47.738281 55.109375 47.582031 54.742188 L 37.910156 32.132812 C 37.851562 31.929688 37.71875 31.824219 37.507812 31.824219 C 37.296875 31.820312 37.160156 31.917969 37.09375 32.121094 L 31.070312 46.476562 C 31.035156 46.558594 31.023438 46.640625 31.03125 46.722656 C 31.039062 46.808594 31.066406 46.886719 31.113281 46.960938 C 31.160156 47.03125 31.222656 47.085938 31.296875 47.125 C 31.375 47.167969 31.453125 47.1875 31.539062 47.1875 L 38.164062 47.1875 C 38.371094 47.1875 38.558594 47.242188 38.726562 47.355469 C 38.898438 47.46875 39.023438 47.621094 39.105469 47.8125 L 42.003906 54.265625 C 42.082031 54.449219 42.113281 54.640625 42.09375 54.839844 C 42.078125 55.039062 42.011719 55.222656 41.902344 55.386719 C 41.792969 55.554688 41.648438 55.683594 41.472656 55.78125 C 41.296875 55.875 41.109375 55.921875 40.910156 55.921875 L 16.792969 55.921875 C 16.609375 55.921875 16.433594 55.875 16.273438 55.789062 C 16.109375 55.699219 15.980469 55.578125 15.878906 55.425781 C 15.777344 55.269531 15.71875 55.101562 15.703125 54.917969 C 15.6875 54.734375 15.714844 54.558594 15.789062 54.390625 L 31.128906 17.855469 C 31.289062 17.460938 31.546875 17.144531 31.902344 16.910156 C 32.257812 16.671875 32.648438 16.558594 33.074219 16.5625 L 41.925781 16.5625 C 42.351562 16.558594 42.742188 16.671875 43.097656 16.910156 C 43.453125 17.144531 43.710938 17.460938 43.871094 17.855469 L 59.320312 54.390625 C 59.390625 54.558594 59.417969 54.734375 59.402344 54.917969 C 59.386719 55.101562 59.328125 55.269531 59.230469 55.421875 C 59.128906 55.578125 58.996094 55.699219 58.835938 55.789062 C 58.675781 55.875 58.5 55.921875 58.316406 55.921875 Z M 58.316406 55.921875 " fill-opacity="1" fill-rule="nonzero"/></svg>