<svg xmlns="http://www.w3.org/2000/svg" xmlns:xlink="http://www.w3.org/1999/xlink" width="100" zoomAndPan="magnify" viewBox="0 0 75 74.999997" height="100" preserveAspectRatio="xMidYMid meet" version="1.0"><defs><clipPath id="881b68c843"><path d="M 0 1 L 75 1 L 75 73.75 L 0 73.75 Z M 0 1 " clip-rule="nonzero"/></clipPath></defs><rect x="-7.5" width="90" fill="#ffffff" y="-7.5" height="89.999996" fill-opacity="1"/><rect x="-7.5" width="90" fill="#ffffff" y="-7.5" height="89.999996" fill-opacity="1"/><rect x="-7.5" width="90" fill="#000b1d" y="-7.5" height="89.999996" fill-opacity="1"/><g clip-path="url(#881b68c843)"><path fill="#000b1d" d="M 13.28125 1 L 61.71875 1 C 69.054688 1 74.996094 6.925781 74.996094 14.234375 L 74.996094 60.640625 C 74.996094 67.949219 69.054688 73.875 61.71875 73.875 L 13.28125 73.875 C 5.945312 73.875 0.00390625 67.949219 0.00390625 60.640625 L 0.00390625 14.234375 C 0.00390625 6.925781 5.945312 1 13.28125 1 Z M 13.28125 1 " fill-opacity="1" fill-rule="nonzero"/></g><path fill="#fa0f00" d="M 58.316406 55.796875 L 49.410156 55.796875 C 48.617188 55.8125 47.894531 55.347656 47.582031 54.621094 L 37.914062 32.089844 C 37.859375 31.90625 37.695312 31.785156 37.507812 31.78125 C 37.320312 31.777344 37.152344 31.898438 37.09375 32.078125 L 31.070312 46.386719 C 31.003906 46.542969 31.019531 46.722656 31.113281 46.863281 C 31.207031 47.007812 31.367188 47.089844 31.539062 47.089844 L 38.164062 47.089844 C 38.574219 47.089844 38.945312 47.335938 39.105469 47.710938 L 42.003906 54.144531 C 42.160156 54.511719 42.125 54.933594 41.902344 55.261719 C 41.683594 55.59375 41.308594 55.796875 40.910156 55.796875 L 16.792969 55.796875 C 16.421875 55.796875 16.082031 55.605469 15.878906 55.300781 C 15.675781 54.992188 15.640625 54.609375 15.789062 54.269531 L 31.128906 17.859375 C 31.449219 17.074219 32.222656 16.5625 33.078125 16.570312 L 41.921875 16.570312 C 42.777344 16.558594 43.550781 17.074219 43.871094 17.859375 L 59.320312 54.269531 C 59.464844 54.605469 59.429688 54.992188 59.230469 55.300781 C 59.027344 55.605469 58.6875 55.792969 58.316406 55.796875 Z M 58.316406 55.796875 " fill-opacity="1" fill-rule="nonzero"/></svg>