<svg xmlns="http://www.w3.org/2000/svg" xmlns:xlink="http://www.w3.org/1999/xlink" width="100" zoomAndPan="magnify" viewBox="0 0 75 74.999997" height="100" preserveAspectRatio="xMidYMid meet" version="1.0"><defs><clipPath id="2d301c6060"><path d="M 0 1.339844 L 75 1.339844 L 75 73.339844 L 0 73.339844 Z M 0 1.339844 " clip-rule="nonzero"/></clipPath></defs><rect x="-7.5" width="90" fill="#ffffff" y="-7.5" height="89.999996" fill-opacity="1"/><rect x="-7.5" width="90" fill="#ffffff" y="-7.5" height="89.999996" fill-opacity="1"/><rect x="-7.5" width="90" fill="#011e36" y="-7.5" height="89.999996" fill-opacity="1"/><g clip-path="url(#2d301c6060)"><path fill="#001e36" d="M 13.28125 1.339844 L 61.71875 1.339844 C 62.59375 1.339844 63.457031 1.425781 64.3125 1.59375 C 65.164062 1.761719 65.996094 2.011719 66.800781 2.34375 C 67.605469 2.675781 68.371094 3.085938 69.097656 3.566406 C 69.820312 4.050781 70.492188 4.597656 71.109375 5.210938 C 71.726562 5.824219 72.277344 6.492188 72.761719 7.214844 C 73.246094 7.9375 73.652344 8.699219 73.988281 9.5 C 74.320312 10.300781 74.570312 11.128906 74.742188 11.980469 C 74.914062 12.832031 74.996094 13.691406 74.996094 14.558594 L 74.996094 60.121094 C 74.996094 60.988281 74.914062 61.847656 74.742188 62.699219 C 74.570312 63.550781 74.320312 64.378906 73.988281 65.179688 C 73.652344 65.980469 73.246094 66.742188 72.761719 67.464844 C 72.277344 68.1875 71.726562 68.855469 71.109375 69.46875 C 70.492188 70.082031 69.820312 70.628906 69.097656 71.113281 C 68.371094 71.59375 67.605469 72 66.800781 72.332031 C 65.996094 72.664062 65.164062 72.914062 64.3125 73.085938 C 63.457031 73.253906 62.59375 73.339844 61.71875 73.339844 L 13.28125 73.339844 C 12.40625 73.339844 11.542969 73.253906 10.6875 73.085938 C 9.835938 72.914062 9.003906 72.664062 8.199219 72.332031 C 7.394531 72 6.628906 71.59375 5.902344 71.113281 C 5.179688 70.628906 4.507812 70.082031 3.890625 69.46875 C 3.273438 68.855469 2.722656 68.1875 2.238281 67.464844 C 1.753906 66.742188 1.347656 65.980469 1.011719 65.179688 C 0.679688 64.378906 0.429688 63.550781 0.257812 62.699219 C 0.0859375 61.847656 0.00390625 60.988281 0.00390625 60.121094 L 0.00390625 14.558594 C 0.00390625 13.691406 0.0859375 12.832031 0.257812 11.980469 C 0.429688 11.128906 0.679688 10.300781 1.011719 9.5 C 1.347656 8.699219 1.753906 7.9375 2.238281 7.214844 C 2.722656 6.492188 3.273438 5.824219 3.890625 5.210938 C 4.507812 4.597656 5.179688 4.050781 5.902344 3.566406 C 6.628906 3.085938 7.394531 2.675781 8.199219 2.34375 C 9.003906 2.011719 9.835938 1.761719 10.6875 1.59375 C 11.542969 1.425781 12.40625 1.339844 13.28125 1.339844 Z M 13.28125 1.339844 " fill-opacity="1" fill-rule="nonzero"/></g><path fill="#31a8ff" d="M 15.585938 51.613281 L 15.585938 20.089844 C 15.585938 19.859375 15.683594 19.746094 15.882812 19.746094 C 16.410156 19.746094 17.039062 19.738281 17.765625 19.71875 C 18.492188 19.703125 19.277344 19.6875 20.121094 19.671875 C 20.960938 19.65625 21.851562 19.636719 22.796875 19.621094 C 23.738281 19.605469 24.667969 19.597656 25.59375 19.597656 C 27.761719 19.542969 29.878906 19.855469 31.9375 20.535156 C 33.507812 21.0625 34.886719 21.902344 36.074219 23.050781 C 37.082031 24.046875 37.832031 25.203125 38.328125 26.527344 C 38.796875 27.8125 39.027344 29.136719 39.023438 30.5 C 39.117188 32.867188 38.507812 35.039062 37.1875 37.011719 C 35.929688 38.769531 34.277344 40.011719 32.234375 40.734375 C 29.992188 41.539062 27.679688 41.925781 25.296875 41.894531 C 24.570312 41.894531 24.058594 41.886719 23.761719 41.871094 C 23.464844 41.855469 23.019531 41.847656 22.421875 41.847656 L 22.421875 51.566406 C 22.441406 51.695312 22.40625 51.804688 22.3125 51.898438 C 22.21875 51.992188 22.109375 52.027344 21.976562 52.007812 L 15.933594 52.007812 C 15.699219 52.007812 15.585938 51.878906 15.585938 51.613281 Z M 22.421875 25.664062 L 22.421875 35.875 C 22.851562 35.910156 23.25 35.925781 23.613281 35.925781 L 25.246094 35.925781 C 26.453125 35.945312 27.632812 35.78125 28.789062 35.433594 C 29.792969 35.136719 30.636719 34.59375 31.316406 33.804688 C 32.03125 32.871094 32.355469 31.820312 32.285156 30.648438 C 32.308594 29.671875 32.070312 28.769531 31.566406 27.933594 C 31.03125 27.125 30.3125 26.542969 29.410156 26.183594 C 28.246094 25.734375 27.039062 25.527344 25.792969 25.566406 C 25 25.566406 24.296875 25.574219 23.6875 25.589844 C 23.074219 25.609375 22.652344 25.632812 22.421875 25.664062 Z M 22.421875 25.664062 " fill-opacity="1" fill-rule="nonzero"/><path fill="#31a8ff" d="M 58.3125 33.902344 C 57.15625 33.429688 55.96875 33.085938 54.742188 32.867188 C 53.609375 32.609375 52.460938 32.476562 51.296875 32.472656 C 50.667969 32.457031 50.046875 32.53125 49.4375 32.695312 C 49.042969 32.78125 48.71875 32.988281 48.472656 33.3125 C 48.308594 33.566406 48.226562 33.847656 48.226562 34.148438 C 48.234375 34.445312 48.332031 34.710938 48.523438 34.941406 C 48.816406 35.28125 49.160156 35.550781 49.5625 35.753906 C 50.269531 36.132812 50.996094 36.46875 51.742188 36.765625 C 53.414062 37.320312 54.988281 38.070312 56.476562 39.007812 C 57.5 39.652344 58.308594 40.5 58.902344 41.550781 C 59.402344 42.542969 59.640625 43.597656 59.621094 44.707031 C 59.652344 46.1875 59.257812 47.542969 58.433594 48.777344 C 57.554688 50.027344 56.40625 50.9375 54.988281 51.515625 C 53.199219 52.230469 51.339844 52.558594 49.414062 52.503906 C 48.003906 52.515625 46.609375 52.386719 45.226562 52.109375 C 44.074219 51.90625 42.960938 51.578125 41.882812 51.121094 C 41.640625 50.996094 41.523438 50.800781 41.535156 50.527344 L 41.535156 45.199219 C 41.523438 45.085938 41.5625 44.996094 41.660156 44.929688 C 41.757812 44.875 41.847656 44.882812 41.933594 44.953125 C 43.195312 45.65625 44.53125 46.15625 45.945312 46.457031 C 47.132812 46.753906 48.339844 46.910156 49.5625 46.925781 C 50.449219 46.980469 51.300781 46.835938 52.113281 46.484375 C 52.367188 46.367188 52.566406 46.195312 52.714844 45.960938 C 52.863281 45.730469 52.933594 45.476562 52.933594 45.199219 C 52.886719 44.667969 52.640625 44.257812 52.191406 43.96875 C 51.246094 43.351562 50.238281 42.875 49.167969 42.535156 C 47.605469 41.996094 46.140625 41.253906 44.78125 40.316406 C 43.800781 39.636719 43.023438 38.773438 42.453125 37.726562 C 41.957031 36.742188 41.71875 35.695312 41.734375 34.59375 C 41.730469 33.261719 42.078125 32.03125 42.773438 30.894531 C 43.570312 29.640625 44.644531 28.703125 45.996094 28.082031 C 47.558594 27.230469 49.230469 26.816406 51.011719 26.835938 C 52.402344 26.761719 53.796875 26.785156 55.1875 26.898438 C 56.324219 27.125 57.414062 27.488281 58.460938 27.984375 C 58.605469 28.023438 58.703125 28.113281 58.757812 28.253906 C 58.789062 28.375 58.808594 28.5 58.804688 28.625 L 58.804688 33.609375 C 58.8125 33.734375 58.765625 33.832031 58.65625 33.902344 C 58.542969 33.976562 58.425781 33.976562 58.3125 33.902344 Z M 58.3125 33.902344 " fill-opacity="1" fill-rule="nonzero"/></svg>