<?xml version="1.0" encoding="utf-8"?>
<!-- Generator: Adobe Illustrator 28.3.0, SVG Export Plug-In . SVG Version: 6.00 Build 0)  -->
<svg version="1.1" id="Layer_1" xmlns="http://www.w3.org/2000/svg" xmlns:xlink="http://www.w3.org/1999/xlink" x="0px" y="0px"
	 viewBox="0 0 56 54" style="enable-background:new 0 0 56 54;" xml:space="preserve">
<style type="text/css">
	.st0{fill:#7155FA;}
</style>
<g>
	<path class="st0" d="M44.6,43.3l-4.8-11.1c2.8-2.9,4.6-6.9,4.6-11.3c0-9-7.3-16.3-16.3-16.3S11.9,12,11.9,20.9
		c0,4.4,1.7,8.3,4.6,11.3l-4.8,11.1c-0.3,0.6-0.2,1.3,0.2,1.9c0.4,0.6,1,0.8,1.7,0.8l4.8-0.3l3.1,3.7c0.4,0.4,0.9,0.7,1.5,0.7
		c0.1,0,0.2,0,0.3,0c0.7-0.1,1.2-0.5,1.5-1.2l3.4-7.8l3.4,7.8c0.3,0.6,0.8,1.1,1.5,1.2c0.1,0,0.2,0,0.3,0c0.6,0,1.1-0.3,1.5-0.7
		l3.1-3.7l4.8,0.3c0.7,0,1.3-0.3,1.7-0.8C44.8,44.7,44.9,43.9,44.6,43.3L44.6,43.3z M28.1,8.6c6.8,0,12.4,5.5,12.4,12.4
		s-5.5,12.4-12.4,12.4s-12.4-5.5-12.4-12.4S21.3,8.6,28.1,8.6z M22.4,44.6l-1.7-2c-0.4-0.5-1-0.7-1.6-0.7L16.5,42l3.1-7.2
		c1.8,1.1,3.9,1.9,6.1,2.2C25.7,37,22.4,44.6,22.4,44.6z M37.1,41.8c-0.6,0-1.2,0.2-1.6,0.7l-1.7,2L30.5,37c2.2-0.3,4.3-1.1,6.1-2.2
		l3.1,7.2L37.1,41.8L37.1,41.8z"/>
	<path class="st0" d="M24.4,28.4c-0.5,0-1-0.2-1.4-0.5c-0.8-0.6-1.2-1.6-0.9-2.6l0.7-2.7l-2.2-1.7c-0.8-0.6-1.1-1.7-0.8-2.7
		c0.3-1,1.2-1.6,2.2-1.7l2.8-0.1l1-2.6c0.4-1,1.3-1.6,2.3-1.6s1.9,0.6,2.3,1.6l1,2.6l2.8,0.1c1,0,1.9,0.7,2.2,1.7c0.3,1,0,2-0.8,2.7
		l-2.2,1.7l0.7,2.7c0.3,1-0.1,2-0.9,2.6c-0.8,0.6-1.9,0.6-2.8,0.1l-2-1.3c-0.2-0.1-0.5-0.1-0.8,0l-2,1.3
		C25.4,28.3,24.9,28.4,24.4,28.4L24.4,28.4z M24.3,19.6l0.7,0.6c0.9,0.7,1.3,1.9,1,3.1l-0.2,0.9L26,24c1.3-0.8,3-0.8,4.3,0l0.2,0.1
		l-0.2-0.9c-0.3-1.1,0.1-2.3,1-3.1l0.7-0.6l-0.9,0c-1.2-0.1-2.2-0.8-2.6-1.9l-0.3-0.8l-0.3,0.8c-0.4,1.1-1.4,1.8-2.6,1.9L24.3,19.6
		L24.3,19.6z"/>
</g>
</svg>
